<svg width="63" height="44" fill="none" xmlns="http://www.w3.org/2000/svg"><path d="M9.1 44c-1.4 0-2.8-.8-4-1.5-1.9-1-3.1-1.6-4.1-1L0 40c2-1.3 4.1-.1 5.9.9 1.9 1 3.1 1.6 4.1 1 1-.7 1-2 .7-4.1-.2-2.1-.4-4.5 1.5-5.8 2-1.3 4.1-.1 5.9.9 1.9 1 3.1 1.6 4.1 1 1-.7 1-2 .7-4.1-.2-2.1-.4-4.5 1.5-5.8 2-1.3 4.1-.1 5.9.9 1.9 1 3.1 1.6 4.1 1 1-.7 1-2 .7-4.1-.2-2.1-.4-4.5 1.5-5.8 2-1.3 4.1-.1 5.9.9 1.9 1 3.1 1.6 4.1 1 1-.7 1-2 .7-4.1-.2-2.1-.4-4.5 1.5-5.8 2-1.3 4.1-.1 5.9.9 1.9 1 3.1 1.6 4.1 1 1-.7 1-2 .8-4.1-.2-2.1-.4-4.5 1.5-5.8l1 1.5c-1 .7-1 2-.8 4.1.2 2.1.4 4.5-1.5 5.8-2 1.3-4.1.1-5.9-.9-1.9-1-3.1-1.6-4.1-1-1 .7-1 2-.7 4.1.2 2.1.4 4.5-1.5 5.8-2 1.3-4.1.1-5.9-.9-1.9-1-3.1-1.6-4.1-1-1 .7-1 2-.7 4.1.2 2.1.4 4.5-1.5 5.8-2 1.3-4.1.1-5.9-.9-1.9-1-3.1-1.6-4.1-1-1 .7-1 2-.7 4.1.2 2.1.4 4.5-1.5 5.8-2 1.3-4.1.1-5.9-.9-1.9-1-3.1-1.6-4.1-1-1 .7-1 2-.7 4.1.2 2.1.4 4.5-1.5 5.8-.7.4-1.3.6-1.9.6z" fill="#fff"/></svg>