<svg width="116" height="117" fill="none" xmlns="http://www.w3.org/2000/svg"><path d="M53.923 1.482a.741.741 0 100-1.482.741.741 0 000 1.482zm-3.706 3.706a.741.741 0 100-1.482.741.741 0 000 1.482zm-3.891 3.707a.741.741 0 100-1.483.741.741 0 000 1.483zM42.62 12.6a.741.741 0 100-1.482.741.741 0 000 1.483zm-3.892 3.892a.741.741 0 100-1.483.741.741 0 000 1.483zm-3.706 3.706a.741.741 0 100-1.482.741.741 0 000 1.482zm-3.892 3.706a.741.741 0 100-1.482.741.741 0 000 1.482zm-3.705 3.706a.741.741 0 100-1.482.741.741 0 000 1.482zm-3.891 3.706a.741.741 0 100-1.482.741.741 0 000 1.482zm-3.707 3.706a.741.741 0 100-1.482.741.741 0 000 1.482zm-3.891 3.706a.741.741 0 100-1.482.741.741 0 000 1.482zm-3.706 3.707a.741.741 0 100-1.483.741.741 0 000 1.483zM8.339 46.14a.741.741 0 100-1.482.741.741 0 000 1.483zm-3.706 3.707a.741.741 0 100-1.483.741.741 0 000 1.483zM.741 53.553a.741.741 0 100-1.483.741.741 0 000 1.483zM58.37 5.93a.741.741 0 100-1.483.741.741 0 000 1.483zm-3.706 3.706a.741.741 0 100-1.483.741.741 0 000 1.483zm-3.891 3.891a.741.741 0 100-1.482.741.741 0 000 1.482zm-3.891 3.706a.741.741 0 100-1.482.741.741 0 000 1.482zm-3.706 3.707a.741.741 0 100-1.483.741.741 0 000 1.482zm-3.892 3.705a.741.741 0 100-1.482.741.741 0 000 1.482zm-3.706 3.707a.741.741 0 100-1.483.741.741 0 000 1.483zm-3.891 3.706a.741.741 0 100-1.483.741.741 0 000 1.483zm-3.707 3.706a.741.741 0 100-1.483.741.741 0 000 1.483zm-3.89 3.706a.741.741 0 100-1.483.741.741 0 000 1.483zm-3.707 3.706a.741.741 0 100-1.483.741.741 0 000 1.483zm-3.891 3.706a.741.741 0 100-1.482.741.741 0 000 1.482zm-3.706 3.706a.741.741 0 100-1.483.741.741 0 000 1.483zm-3.892 3.706a.741.741 0 100-1.482.741.741 0 000 1.482zM5.188 58a.741.741 0 100-1.482.741.741 0 000 1.482zm57.63-47.438a.741.741 0 100-1.482.741.741 0 000 1.482zm-3.891 3.706a.741.741 0 100-1.482.741.741 0 000 1.482zm-3.707 3.706a.741.741 0 100-1.482.741.741 0 000 1.482zm-3.89 3.706a.741.741 0 100-1.482.741.741 0 000 1.482zm-3.707 3.707a.741.741 0 100-1.483.741.741 0 000 1.483zm-3.891 3.706a.741.741 0 100-1.483.741.741 0 000 1.483zm-3.706 3.706a.741.741 0 100-1.483.741.741 0 000 1.483zm-3.892 3.706a.741.741 0 100-1.483.741.741 0 000 1.483zm-3.891 3.705a.741.741 0 100-1.481.741.741 0 000 1.482zm-3.706 3.707a.741.741 0 100-1.483.741.741 0 000 1.483zm-3.892 3.706a.741.741 0 100-1.482.741.741 0 000 1.482zM20.94 51.33a.741.741 0 100-1.483.741.741 0 000 1.482zm-3.892 3.705a.741.741 0 100-1.482.741.741 0 000 1.482zm-3.706 3.706a.741.741 0 100-1.482.741.741 0 000 1.482zM9.45 62.447a.741.741 0 100-1.482.741.741 0 000 1.482zM67.08 15.01a.741.741 0 100-1.483.741.741 0 000 1.483zm-3.706 3.706a.741.741 0 100-1.483.741.741 0 000 1.483zm-3.891 3.706a.741.741 0 100-1.483.741.741 0 000 1.483zm-3.707 3.706a.741.741 0 100-1.483.741.741 0 000 1.483zm-3.891 3.706a.741.741 0 100-1.483.741.741 0 000 1.483zM48.18 33.54a.741.741 0 10-.001-1.483.741.741 0 000 1.483zm-3.892 3.706a.741.741 0 100-1.483.741.741 0 000 1.483zm-3.707 3.706a.741.741 0 100-1.483.741.741 0 000 1.483zm-3.891 3.706a.741.741 0 100-1.482.741.741 0 000 1.482zm-3.706 3.706a.741.741 0 100-1.482.741.741 0 000 1.482zm-3.891 3.706a.741.741 0 100-1.482.741.741 0 000 1.482zm-3.706 3.706a.741.741 0 100-1.482.741.741 0 000 1.482zm-3.892 3.707a.741.741 0 100-1.483.741.741 0 000 1.483zm-3.705 3.705a.741.741 0 100-1.482.741.741 0 000 1.482zm-3.892 3.892a.741.741 0 100-1.483.741.741 0 000 1.483zm57.629-47.623a.741.741 0 100-1.483.741.741 0 000 1.483zm-3.891 3.706a.741.741 0 100-1.483.741.741 0 000 1.483zm-3.706 3.706a.741.741 0 100-1.483.741.741 0 000 1.483zm-3.892 3.706a.741.741 0 100-1.482.741.741 0 000 1.482zm-3.706 3.706a.741.741 0 100-1.482.741.741 0 000 1.482zm-3.892 3.706a.741.741 0 100-1.482.741.741 0 000 1.482zm-3.705 3.706a.741.741 0 100-1.482.741.741 0 000 1.482zM44.843 45.4a.741.741 0 100-1.483.741.741 0 000 1.482zm-3.706 3.705a.741.741 0 100-1.482.741.741 0 000 1.483zm-3.891 3.707a.741.741 0 100-1.483.741.741 0 000 1.483zm-3.706 3.706a.741.741 0 100-1.483.741.741 0 000 1.483zm-3.892 3.706a.741.741 0 100-1.483.741.741 0 000 1.483zm-3.706 3.891a.741.741 0 100-1.482.741.741 0 000 1.482zm-3.891 3.706a.741.741 0 100-1.482.741.741 0 000 1.482zm-3.706 3.706a.741.741 0 100-1.482.741.741 0 000 1.482zm57.629-47.623a.741.741 0 100-1.482.741.741 0 000 1.482zm-3.891 3.706a.741.741 0 100-1.482.741.741 0 000 1.482zm-3.706 3.706a.741.741 0 100-1.482.741.741 0 000 1.482zm-3.891 3.706a.741.741 0 100-1.482.741.741 0 000 1.482zm-3.892 3.706a.741.741 0 100-1.482.741.741 0 000 1.482zm-3.706 3.707a.741.741 0 100-1.483.741.741 0 000 1.483zm-3.891 3.705a.741.741 0 100-1.482.741.741 0 000 1.483zm-3.707 3.707a.741.741 0 100-1.483.741.741 0 000 1.483zm-3.89 3.706a.741.741 0 100-1.483.741.741 0 000 1.483zm-3.707 3.706a.741.741 0 100-1.482.741.741 0 000 1.482zm-3.891 3.891a.741.741 0 100-1.482.741.741 0 000 1.482zm-3.706 3.706a.741.741 0 100-1.482.741.741 0 000 1.482zm-3.892 3.707a.741.741 0 100-1.483.741.741 0 000 1.483zm-3.706 3.706a.741.741 0 100-1.483.741.741 0 000 1.483zm-3.891 3.706a.741.741 0 100-1.483.741.741 0 000 1.483zm57.629-47.623a.741.741 0 100-1.483.741.741 0 000 1.483zm-3.706 3.706a.741.741 0 100-1.483.741.741 0 000 1.483zm-3.891 3.706a.741.741 0 100-1.483.741.741 0 000 1.483zm-3.706 3.706a.741.741 0 100-1.483.741.741 0 000 1.483zm-3.891 3.706a.741.741 0 100-1.483.741.741 0 000 1.483zm-3.706 3.706a.741.741 0 100-1.483.741.741 0 000 1.483zm-3.892 3.706a.741.741 0 100-1.483.741.741 0 000 1.483zm-3.706 3.706a.741.741 0 100-1.482.741.741 0 000 1.482zM49.847 58a.741.741 0 100-1.482.741.741 0 000 1.482zm-3.892 3.892a.741.741 0 100-1.483.741.741 0 000 1.483zm-3.705 3.706a.741.741 0 100-1.483.741.741 0 000 1.483zm-3.892 3.706a.741.741 0 100-1.483.741.741 0 000 1.483zm-3.706 3.706a.741.741 0 100-1.483.741.741 0 000 1.483zm-3.892 3.706a.741.741 0 100-1.483.741.741 0 000 1.483zm-3.706 3.706a.741.741 0 100-1.483.741.741 0 000 1.483zm57.63-47.623a.741.741 0 100-1.482.741.741 0 000 1.482zm-3.892 3.706a.741.741 0 100-1.483.741.741 0 000 1.483zm-3.706 3.705a.741.741 0 100-1.482.741.741 0 000 1.483zm-3.891 3.707a.741.741 0 100-1.482.741.741 0 000 1.482zm-3.706 3.706a.741.741 0 100-1.482.741.741 0 000 1.482zm-3.892 3.707a.741.741 0 100-1.483.741.741 0 000 1.482zm-3.706 3.705a.741.741 0 100-1.482.741.741 0 000 1.482zM58 58.927a.741.741 0 100-1.483.741.741 0 000 1.483zm-3.706 3.706a.741.741 0 100-1.482.741.741 0 000 1.482zm-3.891 3.706a.741.741 0 100-1.483.741.741 0 000 1.483zm-3.706 3.706a.741.741 0 100-1.483.741.741 0 000 1.483zm-3.892 3.706a.741.741 0 100-1.483.741.741 0 000 1.483zM39.1 77.457a.741.741 0 100-1.482.741.741 0 000 1.482zm-3.892 3.706a.741.741 0 100-1.482.741.741 0 000 1.482zm-3.706 3.707a.741.741 0 100-1.483.741.741 0 000 1.482zm57.444-47.624a.741.741 0 100-1.482.741.741 0 000 1.482zm-3.706 3.706a.741.741 0 100-1.482.741.741 0 000 1.482zm-3.892 3.706a.741.741 0 100-1.482.741.741 0 000 1.482zm-3.706 3.706a.741.741 0 100-1.482.741.741 0 000 1.482zM73.75 52.07a.741.741 0 100-1.482.741.741 0 000 1.482zm-3.705 3.892a.741.741 0 100-1.483.741.741 0 000 1.483zm-3.892 3.706a.741.741 0 100-1.483.741.741 0 000 1.483zm-3.706 3.706a.741.741 0 100-1.482.741.741 0 000 1.482zm-3.891 3.706a.741.741 0 100-1.482.741.741 0 000 1.482zm-3.706 3.706a.741.741 0 100-1.482.741.741 0 000 1.482zm-3.892 3.706a.741.741 0 100-1.482.741.741 0 000 1.482zm-3.706 3.706a.741.741 0 100-1.482.741.741 0 000 1.482zm-3.892 3.706a.741.741 0 100-1.482.741.741 0 000 1.482zm-3.705 3.706a.741.741 0 100-1.482.741.741 0 000 1.482zm-3.891 3.706a.741.741 0 100-1.482.741.741 0 000 1.482zm57.629-47.623a.741.741 0 100-1.482.741.741 0 000 1.482zM89.687 45.4a.741.741 0 100-1.483.741.741 0 000 1.483zm-3.891 3.705a.741.741 0 100-1.482.741.741 0 000 1.483zm-3.706 3.892a.741.741 0 100-1.483.741.741 0 000 1.483zm-3.892 3.706a.741.741 0 100-1.483.741.741 0 000 1.483zm-3.891 3.706a.741.741 0 100-1.483.741.741 0 000 1.483zM70.6 64.115a.741.741 0 100-1.482.741.741 0 000 1.482zm-3.89 3.706a.741.741 0 100-1.482.741.741 0 000 1.482zm-3.707 3.706a.741.741 0 100-1.482.741.741 0 000 1.482zm-3.891 3.706a.741.741 0 100-1.482.741.741 0 000 1.482zm-3.706 3.707a.741.741 0 100-1.483.741.741 0 000 1.483zm-3.892 3.705a.741.741 0 100-1.482.741.741 0 000 1.483zm-3.706 3.707a.741.741 0 100-1.483.741.741 0 000 1.483zm-3.891 3.706a.741.741 0 100-1.483.741.741 0 000 1.483zm-3.707 3.706a.741.741 0 100-1.483.741.741 0 000 1.483zM97.84 46.14a.741.741 0 100-1.482.741.741 0 000 1.483zm-3.891 3.892a.741.741 0 100-1.482.741.741 0 000 1.482zm-3.706 3.706a.741.741 0 100-1.482.741.741 0 000 1.482zm-3.892 3.706a.741.741 0 100-1.482.741.741 0 000 1.482zm-3.706 3.706a.741.741 0 100-1.482.741.741 0 000 1.482zm-3.891 3.706a.741.741 0 100-1.482.741.741 0 000 1.482zm-3.706 3.706a.741.741 0 100-1.482.741.741 0 000 1.482zm-3.892 3.706a.741.741 0 100-1.482.741.741 0 000 1.482zm-3.706 3.706a.741.741 0 100-1.482.741.741 0 000 1.482zm-3.891 3.706a.741.741 0 100-1.482.741.741 0 000 1.483zm-3.891 3.707a.741.741 0 100-1.483.741.741 0 000 1.483zm-3.706 3.706a.741.741 0 100-1.482.741.741 0 000 1.482zm-3.892 3.706a.741.741 0 100-1.483.741.741 0 000 1.483zm-3.706 3.706a.741.741 0 100-1.482.741.741 0 000 1.482zm-3.891 3.706a.741.741 0 100-1.482.741.741 0 000 1.482zm57.629-47.438a.742.742 0 10.001-1.483.742.742 0 00-.001 1.483zm-3.706 3.707a.741.741 0 100-1.483.741.741 0 000 1.482zm-3.891 3.705a.741.741 0 100-1.482.741.741 0 000 1.482zm-3.706 3.706a.741.741 0 100-1.482.741.741 0 000 1.482zm-3.892 3.706a.741.741 0 100-1.482.741.741 0 000 1.482zm-3.706 3.706a.741.741 0 100-1.482.741.741 0 000 1.483zM79.31 73.01a.741.741 0 100-1.483.741.741 0 000 1.483zm-3.706 3.706a.741.741 0 100-1.483.741.741 0 000 1.483zm-3.891 3.706a.741.741 0 100-1.483.741.741 0 000 1.483zm-3.707 3.706a.741.741 0 100-1.482.741.741 0 000 1.482zm-3.891 3.706a.741.741 0 100-1.483.741.741 0 000 1.483zm-3.706 3.706a.741.741 0 100-1.482.741.741 0 000 1.482zm-3.891 3.706a.741.741 0 100-1.482.741.741 0 000 1.482zm-3.707 3.706a.741.741 0 100-1.482.741.741 0 000 1.482zm-3.891 3.706a.741.741 0 100-1.483.741.741 0 000 1.483zm57.629-47.438a.741.741 0 10.001-1.482.741.741 0 00-.001 1.482zm-3.891 3.706a.741.741 0 100-1.482.741.741 0 000 1.482zm-3.706 3.707a.741.741 0 100-1.483.741.741 0 000 1.483zm-3.892 3.706a.741.741 0 100-1.483.741.741 0 000 1.483zm-3.705 3.706a.741.741 0 100-1.483.741.741 0 000 1.483zm-3.892 3.705a.741.741 0 100-1.482.741.741 0 000 1.483zm-3.706 3.707a.741.741 0 100-1.483.741.741 0 000 1.483zm-3.891 3.706a.741.741 0 100-1.482.741.741 0 000 1.482zM76.16 84.87a.741.741 0 100-1.483.741.741 0 000 1.482zm-3.892 3.705a.741.741 0 100-1.482.741.741 0 000 1.482zm-3.706 3.706a.741.741 0 100-1.482.741.741 0 000 1.482zm-3.892 3.706a.741.741 0 100-1.482.741.741 0 000 1.482zm-3.705 3.706a.741.741 0 100-1.482.741.741 0 000 1.482zm-3.891 3.892a.741.741 0 10-.001-1.483.741.741 0 000 1.483zm-3.707 3.706a.741.741 0 100-1.482.741.741 0 000 1.482zm57.63-47.623a.741.741 0 100-1.483.741.741 0 000 1.483zm-3.891 3.706a.741.741 0 100-1.483.741.741 0 000 1.483zm-3.707 3.706a.741.741 0 10.001-1.483.741.741 0 00-.001 1.483zm-3.891 3.706a.741.741 0 100-1.482.741.741 0 000 1.482zm-3.706 3.706a.741.741 0 100-1.483.741.741 0 000 1.483zm-3.892 3.706a.741.741 0 100-1.483.741.741 0 000 1.483zm-3.89 3.706a.741.741 0 100-1.482.741.741 0 000 1.482zm-3.707 3.706a.741.741 0 100-1.482.741.741 0 000 1.482zm-3.891 3.706a.741.741 0 100-1.482.741.741 0 000 1.482zm-3.706 3.706a.741.741 0 100-1.482.741.741 0 000 1.482zm-3.892 3.706a.741.741 0 100-1.482.741.741 0 000 1.483zm-3.706 3.892a.741.741 0 100-1.483.741.741 0 000 1.483zm-3.891 3.706a.741.741 0 100-1.482.741.741 0 000 1.482zm-3.707 3.706a.741.741 0 100-1.482.741.741 0 000 1.482zm-3.89 3.706a.741.741 0 100-1.483.741.741 0 000 1.483zm57.629-47.623a.741.741 0 100-1.483.741.741 0 000 1.483zm-3.706 3.706a.741.741 0 100-1.483.741.741 0 000 1.483zm-3.892 3.706a.742.742 0 10.001-1.483.742.742 0 00-.001 1.483zm-3.706 3.706a.742.742 0 10.001-1.483.742.742 0 00-.001 1.483zm-3.891 3.707a.741.741 0 100-1.483.741.741 0 000 1.482zm-3.706 3.705a.741.741 0 100-1.482.741.741 0 000 1.482zm-3.892 3.706a.741.741 0 100-1.482.741.741 0 000 1.482zm-3.706 3.706a.741.741 0 100-1.482.741.741 0 000 1.482zm-3.89 3.707a.741.741 0 10-.001-1.483.741.741 0 000 1.483zm-3.707 3.891a.741.741 0 100-1.482.741.741 0 000 1.482zm-3.891 3.706a.741.741 0 100-1.482.741.741 0 000 1.482zm-3.892 3.706a.741.741 0 100-1.483.741.741 0 000 1.483zm-3.706 3.706a.741.741 0 100-1.483.741.741 0 000 1.483zm-3.891 3.706a.741.741 0 100-1.483.741.741 0 000 1.483zm-3.706 3.706a.741.741 0 100-1.482.741.741 0 000 1.482z" fill="#8643DC"/></svg>